<svg width="128" height="128" viewBox="-21 -21 170 170" fill="none" xmlns="http://www.w3.org/2000/svg"><path fill-rule="evenodd" clip-rule="evenodd" d="M64.0006 17.3335C54.996 17.3335 43.4799 17.9585 33.978 18.6064C25.7036 19.1706 19.1711 25.7031 18.6069 33.9775C17.9589 43.4794 17.334 54.9955 17.334 64.0002C17.334 73.0048 17.9589 84.5209 18.6069 94.0228C19.1711 102.297 25.7036 108.83 33.978 109.394C43.4799 110.042 54.996 110.667 64.0006 110.667C73.0053 110.667 84.5214 110.042 94.0233 109.394C102.298 108.83 108.83 102.297 109.394 94.0228C110.042 84.5209 110.667 73.0048 110.667 64.0002C110.667 54.9955 110.042 43.4794 109.394 33.9775C108.83 25.7031 102.298 19.1706 94.0233 18.6064C84.5214 17.9585 73.0053 17.3335 64.0006 17.3335ZM33.4338 10.6249C42.9721 9.97451 54.7116 9.3335 64.0006 9.3335C73.2897 9.3335 85.0292 9.97451 94.5675 10.6249C106.831 11.4612 116.54 21.1695 117.376 33.4333C118.026 42.9716 118.667 54.7111 118.667 64.0002C118.667 73.2892 118.026 85.0287 117.376 94.5671C116.54 106.831 106.831 116.539 94.5675 117.375C85.0292 118.026 73.2897 118.667 64.0006 118.667C54.7116 118.667 42.9721 118.026 33.4338 117.375C21.17 116.539 11.4617 106.831 10.6254 94.5671C9.975 85.0287 9.33398 73.2892 9.33398 64.0002C9.33398 54.7111 9.975 42.9716 10.6254 33.4333C11.4617 21.1695 21.1699 11.4612 33.4338 10.6249Z" fill="#2E2F33"/><path fill-rule="evenodd" clip-rule="evenodd" d="M48.0006 36.0002C44.3187 36.0002 41.334 38.9849 41.334 42.6668C41.334 46.3487 44.3187 49.3335 48.0006 49.3335C51.6825 49.3335 54.6673 46.3487 54.6673 42.6668C54.6673 38.9849 51.6825 36.0002 48.0006 36.0002ZM33.334 42.6668C33.334 34.5667 39.9005 28.0002 48.0006 28.0002C56.1008 28.0002 62.6673 34.5667 62.6673 42.6668C62.6673 50.767 56.1008 57.3335 48.0006 57.3335C39.9005 57.3335 33.334 50.767 33.334 42.6668Z" fill="#2E2F33"/><path fill-rule="evenodd" clip-rule="evenodd" d="M102.846 70.8814C100.494 68.8615 96.4888 68.8615 94.1373 70.8814L73.6013 88.5048C68.2517 93.0987 59.8166 93.0995 54.4675 88.5048L54.4333 88.4754L52.8235 87.0604C50.7135 85.261 47.0786 85.0341 44.6409 86.6696L20.3049 103.009C18.4708 104.24 15.9857 103.752 14.7543 101.917C13.5229 100.083 14.0115 97.5983 15.8456 96.3669L40.1827 80.0269C45.539 76.4334 53.1495 76.7933 58.0515 81.0049L58.0855 81.0341L59.6951 82.449C62.0486 84.4561 66.042 84.4519 68.3886 82.4363L88.9246 64.8128C94.2742 60.2189 102.709 60.2181 108.058 64.8128L116.105 71.7239C117.781 73.1632 117.972 75.6886 116.533 77.3645C115.094 79.0403 112.568 79.232 110.892 77.7927L102.846 70.8814Z" fill="#2E2F33"/></svg>